<?xml version="1.0" standalone="no"?>
<!DOCTYPE svg PUBLIC "-//W3C//DTD SVG 20010904//EN"
 "http://www.w3.org/TR/2001/REC-SVG-20010904/DTD/svg10.dtd">
<svg version="1.0" xmlns="http://www.w3.org/2000/svg"
 width="900.000000pt" height="650.000000pt" viewBox="0 0 900.000000 650.000000"
 preserveAspectRatio="xMidYMid meet">

<g transform="translate(0.000000,650.000000) scale(0.100000,-0.100000)"
fill="#000000" stroke="none">
<path d="M4554 5239 c-2 -4 -11 -6 -20 -2 -8 3 -25 -3 -37 -14 -20 -18 -81
-48 -99 -48 -3 0 -10 -4 -15 -9 -5 -5 -3 -6 5 -2 19 11 14 -8 -8 -27 -11 -9
-20 -23 -20 -31 0 -8 -10 -16 -22 -18 -15 -2 -24 -13 -31 -38 -5 -19 -14 -38
-20 -42 -7 -4 -12 -13 -12 -20 0 -7 -6 -13 -13 -13 -8 0 -24 -13 -37 -28 -24
-31 -61 -34 -59 -4 1 10 -3 14 -10 10 -6 -4 -5 1 3 10 12 15 11 17 -3 17 -10
0 -16 -9 -16 -25 0 -20 -5 -25 -25 -25 -20 0 -25 -5 -25 -25 0 -25 23 -35 35
-15 3 6 -1 7 -9 4 -9 -3 -16 -1 -16 4 0 16 16 23 34 16 12 -5 16 -20 16 -65 0
-35 -4 -59 -11 -59 -5 0 -8 -4 -4 -9 8 -13 -9 -21 -52 -25 -42 -4 -46 -14 -30
-75 9 -34 50 -81 72 -81 6 0 11 -13 11 -30 0 -29 -1 -30 -47 -30 -26 0 -50 4
-53 9 -8 12 -56 20 -56 10 0 -5 12 -9 28 -10 l27 -1 -25 -7 c-18 -5 -26 -15
-28 -34 -3 -22 -8 -27 -31 -27 -26 0 -29 4 -35 48 -4 29 -14 53 -26 62 -10 8
-22 30 -25 49 -8 46 -24 74 -40 68 -9 -4 -14 8 -18 36 -4 28 -14 49 -31 62
-14 12 -27 36 -31 58 -4 20 -11 37 -17 37 -5 0 -6 5 -3 10 4 6 1 9 -6 8 -7 -2
-15 10 -19 27 -5 30 -6 30 -78 33 -70 3 -73 4 -66 25 4 12 7 33 8 47 1 22 6
24 50 27 74 5 69 13 -7 13 l-67 0 2 -102 c2 -95 1 -106 -23 -143 -14 -22 -29
-53 -33 -70 -3 -16 -8 -40 -11 -51 -5 -23 31 -78 45 -69 10 6 8 -15 -3 -32 -4
-6 -1 -14 5 -16 11 -5 -62 -12 -84 -8 -4 0 -6 -34 -5 -76 2 -74 1 -77 -23 -85
l-25 -8 26 4 c26 3 26 2 24 -52 -1 -33 -8 -58 -16 -63 -10 -6 -11 -9 -1 -9 7
0 12 -13 12 -29 0 -40 18 -51 97 -60 41 -5 53 -9 32 -10 -22 0 -43 -9 -54 -21
-10 -11 -29 -20 -42 -20 -12 0 -23 -5 -23 -11 0 -5 5 -7 10 -4 6 4 10 -6 10
-22 0 -15 7 -37 15 -47 38 -51 -6 -63 -55 -16 -17 17 -37 30 -45 30 -7 0 -15
10 -17 23 -3 19 -10 22 -50 25 -39 3 -47 7 -52 26 -4 17 -15 26 -41 30 -20 4
-35 13 -35 21 0 18 -31 35 -63 35 -18 0 -27 7 -31 24 -4 17 -15 25 -41 30 -20
4 -35 13 -35 21 0 21 -33 35 -84 35 -42 0 -46 -2 -46 -25 0 -21 6 -26 41 -31
30 -5 43 -13 50 -30 4 -13 17 -24 27 -24 10 0 34 -13 52 -30 18 -16 42 -30 52
-30 9 0 25 -11 33 -24 11 -16 30 -27 57 -31 28 -5 42 -13 45 -26 3 -11 21 -26
39 -34 19 -8 34 -18 34 -24 0 -5 17 -15 38 -22 20 -6 47 -23 59 -35 12 -13 31
-24 42 -24 11 0 25 -9 31 -21 7 -11 25 -25 41 -31 18 -6 48 -36 79 -78 54 -71
81 -90 133 -90 18 0 54 -8 82 -18 42 -15 50 -22 56 -50 6 -30 4 -33 -42 -54
-27 -12 -49 -27 -49 -34 0 -17 117 -134 134 -134 8 0 19 -7 27 -16 63 -77 337
-186 510 -203 98 -10 103 -14 76 -54 -25 -36 -201 -211 -244 -242 -48 -35
-132 -84 -156 -90 -12 -4 -40 -17 -62 -30 -22 -12 -61 -25 -88 -28 -26 -4 -61
-13 -77 -22 -31 -16 -69 -19 -109 -8 -21 5 -22 10 -17 46 4 23 15 55 25 72 23
36 35 106 26 136 l-7 22 -14 -24 c-7 -13 -13 -32 -14 -43 0 -10 -11 -31 -25
-48 -14 -16 -25 -37 -25 -47 0 -10 -9 -26 -20 -36 -11 -10 -20 -31 -20 -48 0
-35 -35 -87 -59 -87 -10 0 -33 -11 -52 -25 -19 -13 -49 -31 -66 -39 -18 -8
-33 -21 -33 -28 0 -7 -19 -19 -42 -26 -23 -7 -48 -22 -56 -33 -7 -10 -21 -19
-31 -19 -10 0 -35 -13 -56 -30 -21 -16 -47 -30 -57 -30 -11 0 -22 -9 -25 -20
-3 -11 -20 -24 -42 -31 -20 -7 -49 -22 -64 -35 -16 -13 -36 -24 -46 -24 -10 0
-27 -11 -39 -25 -12 -14 -36 -28 -53 -32 -17 -3 -33 -12 -36 -19 -2 -6 -15
-15 -29 -18 -32 -8 -64 -36 -64 -56 1 -8 13 -29 28 -46 23 -27 38 -34 100 -44
47 -8 72 -16 72 -25 0 -8 8 -16 18 -18 41 -12 88 -16 98 -9 7 4 17 33 24 64 6
32 15 60 20 63 18 11 30 -25 27 -80 -3 -48 -7 -59 -24 -66 -28 -10 -38 -49
-12 -44 16 3 19 -3 20 -33 1 -31 3 -28 12 21 l9 58 53 -6 c62 -8 95 0 95 23 0
32 33 192 40 192 9 0 20 -79 20 -147 0 -42 4 -55 18 -59 9 -3 25 -10 34 -15
10 -5 33 -9 52 -9 38 0 32 -19 55 200 13 121 32 215 42 198 4 -8 11 -65 14
-128 4 -63 11 -139 16 -167 10 -51 12 -53 42 -53 24 0 40 8 59 31 36 40 41 76
29 179 -13 97 -14 243 -4 254 4 4 13 -22 19 -57 7 -35 21 -84 32 -108 11 -24
23 -63 27 -86 3 -22 12 -49 20 -59 11 -15 9 -25 -7 -63 -11 -26 -30 -57 -43
-71 -12 -14 -26 -35 -29 -46 -4 -12 -16 -32 -27 -45 -11 -13 -23 -36 -26 -52
-3 -15 -14 -32 -23 -37 -10 -5 -25 -27 -33 -48 -8 -21 -22 -44 -31 -51 -9 -8
-16 -22 -16 -32 0 -10 -13 -33 -29 -52 -16 -18 -33 -45 -36 -59 -4 -14 -15
-28 -25 -31 -10 -3 -22 -19 -28 -38 -5 -19 -21 -52 -36 -73 -14 -21 -26 -45
-26 -52 0 -21 62 -22 86 -2 16 14 53 21 157 30 75 6 137 15 137 20 0 5 4 7 8
4 11 -6 -1 69 -17 107 -13 34 -14 86 -1 107 10 16 8 20 31 -54 6 -22 23 -57
38 -78 25 -38 27 -39 74 -34 26 3 52 8 58 12 19 11 6 124 -15 140 -22 15 -37
85 -27 122 8 29 13 24 31 -33 7 -22 19 -47 26 -55 7 -9 20 -32 29 -53 15 -37
15 -37 76 -37 l61 0 -4 -35 c-2 -19 0 -35 4 -35 4 0 8 7 8 15 0 8 6 15 13 15
7 0 22 6 32 14 19 13 18 15 -15 23 -35 9 -35 10 -41 76 -3 41 -12 74 -22 85
-10 10 -25 41 -34 68 -9 27 -25 60 -35 74 -26 36 -36 100 -15 100 8 0 21 -14
29 -30 7 -16 16 -30 20 -30 9 0 53 -64 89 -128 22 -41 31 -48 68 -55 62 -12
71 -6 71 53 0 57 -13 90 -35 90 -8 0 -18 12 -21 28 -8 28 -53 101 -104 166
-33 42 -34 44 -20 66 11 17 36 6 54 -24 6 -10 35 -44 64 -75 29 -31 67 -71 83
-89 17 -18 41 -32 54 -32 34 0 49 -23 33 -52 -9 -15 -14 -67 -15 -153 -1 -71
-2 -139 -2 -150 -1 -11 -1 -94 -1 -185 0 -91 -3 -184 -6 -208 -6 -41 -8 -43
-38 -40 l-31 3 0 298 c0 163 -3 297 -7 297 -4 0 -13 -19 -19 -42 -7 -24 -18
-50 -26 -59 -10 -12 -13 -72 -13 -262 l0 -247 30 0 c27 0 30 -3 30 -30 l0 -30
119 0 c65 0 139 3 165 6 40 6 46 10 46 30 0 19 5 24 25 24 21 0 25 5 25 30 0
30 1 30 55 30 l55 0 0 55 c0 54 0 55 30 55 25 0 30 4 30 25 0 20 5 25 25 25
21 0 25 5 25 30 0 27 3 30 30 30 30 0 30 1 30 55 0 52 1 55 25 55 21 0 25 5
25 30 0 27 3 30 30 30 27 0 30 -3 30 -30 0 -27 3 -30 30 -30 30 0 30 -1 30
-55 0 -52 1 -55 25 -55 21 0 25 -5 25 -30 0 -27 3 -30 30 -30 25 0 30 -4 30
-25 0 -21 5 -25 30 -25 25 0 30 4 30 25 0 18 -7 28 -24 34 -15 6 -25 20 -29
39 -4 22 -13 31 -29 34 -19 2 -24 10 -26 46 -3 35 -8 45 -33 57 -25 14 -29 21
-29 60 0 41 -2 45 -24 45 -21 0 -24 6 -30 54 -6 42 -12 55 -27 59 -10 3 -19
14 -19 24 0 10 -9 36 -20 58 -11 22 -20 46 -20 55 0 27 -29 58 -59 65 -16 3
-32 12 -34 20 -3 7 -22 18 -41 25 -20 6 -36 15 -36 20 0 5 -23 16 -51 25 -31
11 -53 24 -56 35 -3 12 -20 21 -51 27 -55 10 -61 27 -10 31 26 2 41 -2 55 -16
10 -11 34 -23 53 -26 19 -4 71 -16 115 -28 85 -22 134 -58 150 -108 4 -14 16
-36 26 -49 11 -13 24 -42 30 -63 6 -22 21 -51 35 -65 13 -13 24 -35 24 -48 0
-13 9 -30 20 -38 10 -7 25 -34 32 -60 6 -26 19 -49 28 -52 9 -3 22 -26 29 -51
8 -25 20 -48 27 -51 7 -2 16 -24 20 -49 8 -56 23 -68 80 -61 25 2 47 6 49 9 2
2 9 33 14 68 6 36 17 70 25 76 20 14 38 91 34 140 l-3 39 -77 14 c-124 23 -94
47 42 35 64 -5 83 -11 91 -25 14 -27 69 -26 69 0 0 15 -8 21 -32 23 -33 3 -33
3 -38 68 l-5 65 -44 7 c-24 4 -52 16 -62 26 -11 13 -38 22 -78 26 -35 4 -59
11 -56 17 8 12 77 11 145 -3 31 -6 68 -8 83 -4 26 6 27 8 27 81 l0 75 -67 1
c-91 1 -155 12 -232 41 l-64 25 69 6 c100 10 229 8 258 -2 13 -6 30 -23 38
-38 11 -24 20 -28 61 -31 l47 -3 1 53 c0 29 3 47 6 41 2 -7 18 -13 34 -13 22
0 32 -6 39 -24 6 -18 19 -26 49 -31 34 -6 41 -11 41 -30 0 -19 6 -24 33 -27
24 -2 33 -8 35 -26 2 -12 8 -20 13 -17 5 4 9 1 9 -5 0 -6 6 -10 13 -9 44 5 65
-2 71 -26 4 -14 14 -26 24 -27 33 -2 77 4 89 13 8 7 13 4 16 -8 3 -10 5 -4 6
14 1 31 0 32 -55 39 -44 5 -58 11 -62 26 -2 10 -20 25 -38 33 -19 8 -34 21
-34 29 0 8 -13 17 -29 21 -16 3 -40 17 -53 29 -13 13 -37 27 -55 30 -19 5 -35
15 -38 27 -4 10 -13 19 -20 19 -8 0 -29 13 -47 28 -18 16 -46 32 -62 36 -15 4
-30 15 -33 25 -3 10 -22 24 -44 31 -22 8 -44 21 -49 30 -5 10 -23 20 -39 23
-17 4 -35 17 -43 30 -11 21 -35 54 -90 129 -19 26 -132 42 -278 40 -125 -2
-146 8 -46 23 62 9 76 14 76 30 0 7 21 23 48 37 66 34 69 64 9 121 -56 55
-191 144 -287 190 -85 41 -281 107 -316 107 -13 0 -46 5 -74 11 -38 8 -50 15
-50 29 0 29 243 269 279 276 16 4 31 14 34 24 2 10 18 20 38 24 18 3 45 18 60
32 17 16 42 28 70 31 24 3 50 13 57 22 8 10 42 20 95 28 45 6 101 16 124 21
l42 9 -6 -31 c-10 -60 -37 -151 -50 -172 -16 -25 -22 -108 -8 -113 6 -2 15 13
21 34 5 20 17 42 25 49 8 6 23 30 32 52 9 23 25 57 36 75 12 19 21 42 21 52 0
10 11 22 24 26 13 5 26 16 29 25 5 11 22 14 79 13 75 -1 118 13 118 38 0 7 5
17 12 21 7 5 8 2 3 -7 -5 -8 3 -5 16 7 33 29 59 37 76 23 7 -7 16 -9 20 -5 3
3 1 6 -5 6 -6 0 -9 7 -6 15 4 8 10 13 14 10 5 -3 6 4 3 15 -4 16 1 21 28 27
19 4 37 6 42 5 4 -1 11 8 16 21 8 21 15 23 63 21 29 -2 47 -1 40 2 -10 5 -10
9 -1 20 9 11 8 14 -2 14 -9 1 -7 6 6 16 11 8 29 14 40 13 35 -2 45 1 45 15 0
18 21 35 50 39 13 2 25 12 26 22 4 29 23 37 91 38 17 1 20 4 11 14 -10 12 0
18 25 14 4 0 6 2 6 6 -1 5 -1 20 0 35 1 21 5 25 21 21 11 -3 20 0 20 6 0 6
-13 11 -30 11 -16 0 -30 5 -30 11 0 5 4 8 9 4 5 -3 17 2 26 11 12 12 13 19 4
30 -16 19 -40 18 -32 -2 4 -11 8 -12 13 -4 5 8 10 8 14 2 3 -5 -1 -13 -9 -16
-9 -3 -18 1 -21 9 -11 28 -22 15 -20 -21 2 -20 9 -39 16 -44 9 -6 10 -12 1
-26 -10 -18 -10 -18 -11 4 0 26 -8 27 -38 6 -12 -8 -35 -17 -50 -20 -47 -8
-90 -24 -102 -39 -14 -17 -37 -10 -37 10 0 9 10 15 23 15 24 0 34 17 34 61 0
21 5 29 18 29 24 0 87 23 106 39 12 10 16 11 16 1 0 -10 4 -9 16 1 10 8 14 23
12 41 -3 15 0 29 6 32 6 2 0 4 -14 3 -72 -2 -111 3 -104 16 4 6 -2 3 -14 -7
-22 -19 -22 -19 -22 8 0 19 -7 29 -24 36 -24 9 -125 9 -127 0 -7 -45 -19 -64
-26 -43 -3 10 -10 10 -24 2 -11 -5 -23 -8 -27 -5 -13 8 -35 -11 -38 -31 -2
-10 -7 -43 -13 -73 -6 -30 -13 -71 -16 -91 -3 -21 -12 -42 -20 -49 -12 -10
-18 -6 -35 22 -11 18 -20 38 -20 43 -1 6 -2 42 -4 80 -6 111 -5 112 65 112 32
0 62 2 65 6 3 3 7 23 10 45 l3 40 -72 -2 c-67 -1 -72 -3 -75 -23 -2 -13 -8
-23 -13 -23 -6 0 -7 -4 -4 -10 3 -5 0 -10 -7 -11 -7 0 -4 -4 6 -8 19 -7 19 -8
-2 -13 -12 -4 -22 -2 -22 4 0 6 -6 8 -14 5 -11 -5 -14 4 -12 38 l2 43 -72 -1
c-68 0 -72 -2 -63 -19 6 -12 6 -18 0 -18 -5 0 -8 -9 -6 -20 2 -13 -2 -20 -11
-20 -8 0 -14 -4 -14 -9 0 -5 -9 -11 -20 -14 -14 -4 -20 -14 -21 -34 0 -27 -1
-27 -11 -5 -6 12 -15 22 -19 22 -5 0 -4 11 1 25 9 24 6 29 -14 26 -4 -1 -14 3
-21 9 -14 11 -8 63 6 54 5 -3 12 2 15 10 3 9 11 13 17 9 5 -3 7 -2 4 4 -7 10
6 71 14 64 2 -2 14 1 27 8 17 9 22 20 22 51 0 22 3 40 8 41 4 0 15 2 25 4 14
3 18 -1 14 -16 -3 -10 -1 -19 4 -19 5 0 7 24 5 53 -2 28 0 61 4 72 5 11 9 15
9 8 1 -7 8 -10 16 -7 8 4 12 10 9 15 -3 5 -1 9 3 9 5 0 9 10 10 21 2 26 6 30
30 33 21 3 33 66 12 66 -8 0 -8 4 1 16 11 12 11 15 1 12 -8 -2 -15 5 -16 15
-3 14 1 18 16 14 10 -3 19 -1 19 5 0 5 -12 8 -27 6 -16 -2 -28 2 -31 11 -3 9
0 11 9 6 11 -6 12 -5 2 6 -7 7 -13 20 -13 28 0 14 -23 16 -160 18 l-160 3 0
-27 c0 -14 -8 -32 -17 -39 -19 -13 -20 -16 -22 -60 -1 -20 -5 -25 -17 -20 -13
5 -14 4 -6 -7 9 -11 7 -13 -11 -12 -12 1 -25 -3 -29 -9 -4 -6 -9 -3 -13 9 -13
42 -22 50 -51 47 -51 -5 -53 -5 -48 -13 2 -4 0 -11 -6 -14 -7 -5 -8 -11 -1
-19 6 -7 6 -17 0 -26 -7 -12 -11 -13 -18 -2 -6 11 -9 9 -13 -6 -5 -16 -2 -19
11 -15 13 5 14 3 4 -8 -10 -10 -16 -10 -25 -1 -15 15 -32 16 -22 1 4 -8 0 -9
-15 -4 -13 4 -21 2 -21 -5 0 -6 -5 -8 -12 -4 -7 4 -8 3 -4 -4 4 -7 4 -17 0
-23 -4 -8 -9 -7 -15 2 -7 11 -9 11 -9 1 0 -7 14 -18 30 -24 34 -11 50 -34 50
-72 0 -14 11 -42 25 -62 27 -40 36 -123 13 -125 -7 -1 -24 -3 -38 -4 -45 -4
-52 4 -49 59 3 46 1 51 -19 54 -12 2 -33 14 -45 26 -22 22 -22 23 -4 41 29 31
12 80 -30 91 -10 2 22 76 37 84 27 15 34 12 19 -7 -13 -15 -12 -15 8 -2 28 17
12 29 -39 29 l-38 0 0 -54 c0 -54 -16 -76 -43 -59 -7 4 -8 0 -4 -11 4 -10 4
-29 1 -43 -6 -23 -10 -25 -46 -20 -33 4 -37 3 -27 -9 10 -12 9 -13 -5 -8 -23
9 -20 23 7 34 21 8 21 9 -5 9 -23 1 -28 -3 -28 -24 0 -31 3 -41 12 -38 3 1 9
-4 12 -13 4 -10 1 -13 -7 -9 -6 4 -4 0 6 -8 16 -13 16 -15 1 -21 -22 -8 -26
-8 -19 3 3 5 1 12 -3 15 -14 8 -54 -72 -47 -93 3 -11 1 -22 -5 -26 -6 -3 -8
-11 -5 -16 4 -5 2 -9 -3 -9 -27 0 -33 72 -32 365 1 165 3 312 4 328 1 15 3 38
4 52 3 35 26 31 46 -7 l16 -33 0 38 0 38 -65 -2 c-36 -1 -68 -6 -71 -10z m834
-234 c0 -21 -3 -23 -15 -14 -11 10 -11 14 -1 20 10 7 10 9 1 9 -7 0 -22 -9
-33 -20 -25 -25 -29 -25 -23 -1 5 19 20 27 54 30 11 1 17 -7 17 -24z m220 0
c4 -20 4 -20 -13 0 -9 11 -14 14 -10 8 4 -9 1 -11 -9 -7 -20 8 -9 26 12 22 9
-2 18 -12 20 -23z m-115 -18 c-17 -33 -18 -33 -48 -18 l-30 16 40 6 c22 3 32
7 23 8 -28 2 -21 21 7 21 l25 0 -17 -33z m-126 -13 c-9 -9 -28 6 -21 18 4 6
10 6 17 -1 6 -6 8 -13 4 -17z m256 -15 c12 -12 15 -18 7 -14 -13 8 -13 7 0
-10 14 -17 13 -18 -8 -13 -13 4 -20 2 -16 -3 3 -6 0 -16 -6 -24 -7 -8 -10 -15
-6 -15 3 0 -24 -30 -59 -66 -36 -37 -65 -73 -65 -81 0 -7 -16 -27 -35 -44 -19
-17 -35 -38 -35 -46 0 -18 -21 -39 -37 -37 -7 1 -19 2 -27 3 -7 0 -16 12 -18
26 -8 37 38 86 88 94 l39 6 3 55 c2 30 9 62 17 70 7 8 15 24 17 35 2 12 13 21
27 23 14 2 34 10 47 18 12 8 26 14 30 13 21 -4 26 2 14 16 -19 23 -2 18 23 -6z
m-249 -124 c9 -37 -10 -68 -37 -61 -12 3 -27 6 -33 6 -7 0 -17 19 -23 43 -7
23 -14 47 -17 54 -9 19 29 20 67 2 23 -12 39 -28 43 -44z m-202 -19 c10 -11
18 -27 18 -34 0 -8 8 -26 19 -40 28 -41 34 -89 14 -123 -34 -57 -64 -39 -73
45 -4 39 -10 53 -26 61 -46 23 -56 38 -50 74 3 19 10 37 16 41 19 12 64 -1 82
-24z m-965 -52 c-3 -3 -12 -4 -19 -1 -8 3 -5 6 6 6 11 1 17 -2 13 -5z m627
-199 c6 -11 37 -61 69 -111 31 -50 57 -95 57 -101 0 -5 20 -24 45 -43 25 -19
45 -36 45 -39 0 -11 -20 -36 -20 -26 0 5 -7 -1 -16 -14 -16 -22 -16 -24 -1
-33 27 -14 38 -44 28 -71 -16 -40 -38 -27 -71 42 -18 36 -50 87 -71 113 -21
26 -39 57 -39 70 0 15 -8 27 -22 33 -13 6 -25 19 -27 29 -2 11 -14 28 -26 38
-24 19 -52 108 -40 128 11 18 77 7 89 -15z m477 -10 c1 -8 2 -25 3 -37 2 -29
-22 -106 -43 -135 -21 -30 -76 -29 -78 1 -4 62 7 86 47 102 32 13 41 22 46 50
6 34 23 47 25 19z m-619 -124 c-5 -3 -11 -18 -14 -33 -4 -21 2 -34 24 -57 25
-26 27 -30 11 -34 -23 -7 -76 -3 -91 7 -26 16 -6 116 22 116 9 0 23 15 33 33
l18 32 3 -29 c2 -16 -1 -32 -6 -35z m450 29 c2 -14 -2 -32 -9 -39 -24 -22 -28
-63 -7 -77 40 -28 45 -36 42 -72 -3 -34 -6 -37 -35 -40 -28 -3 -33 1 -39 22
-3 14 -3 37 0 51 5 19 2 25 -9 25 -8 0 -23 17 -31 38 -9 20 -19 44 -23 52 -18
38 12 64 78 66 24 1 30 -3 33 -26z m-1069 -79 c23 -1 27 -5 27 -31 0 -34 -18
-39 -41 -12 -8 9 -26 24 -39 33 l-25 16 25 -2 c14 -1 37 -3 53 -4z m1586 -5
c21 -13 13 -81 -14 -110 -14 -15 -25 -23 -25 -17 0 5 -18 20 -40 32 -31 18
-40 29 -40 50 0 15 6 34 13 41 14 13 86 16 106 4z m320 -13 c-3 -21 3 -29 24
-29 34 -1 97 -43 97 -65 0 -19 -4 -20 -115 -23 -29 -1 -30 1 -31 44 0 25 4 53
8 63 9 17 19 23 17 10z m-596 -27 c9 1 17 -1 17 -6 0 -5 8 -7 18 -5 9 1 16 9
14 16 -3 12 -1 12 10 0 10 -11 10 -14 1 -18 -7 -3 -13 -18 -13 -34 0 -17 -5
-39 -10 -50 -20 -37 -110 -17 -110 25 0 7 9 25 20 39 11 14 20 31 20 39 0 9 3
9 8 2 4 -6 15 -10 25 -8z m-1183 -38 c0 -36 -4 -35 -14 5 -4 16 -2 27 4 27 5
0 10 -14 10 -32z m594 -48 c19 0 34 -34 24 -54 -9 -17 -14 -15 -54 30 -48 53
-49 55 -32 72 9 9 16 5 32 -18 12 -16 25 -30 30 -30z m-198 3 c-6 -14 -9 -15
-16 -4 -11 19 -1 46 13 32 5 -5 7 -18 3 -28z m81 -80 c12 -12 25 -32 28 -44 4
-12 32 -46 62 -76 41 -41 52 -59 48 -74 -10 -32 -43 -22 -70 21 -14 22 -30 40
-35 40 -6 0 -16 11 -22 25 -6 14 -21 28 -34 31 -14 4 -24 16 -28 36 -13 68 -2
119 19 82 5 -10 20 -28 32 -41z m-929 40 c-16 -2 -40 -2 -55 0 -16 2 -3 4 27
4 30 0 43 -2 28 -4z m1705 -145 c6 -89 10 -114 19 -123 3 -4 -1 -20 -9 -36
-11 -22 -12 -33 -4 -43 6 -7 7 -17 3 -22 -4 -4 1 -2 10 5 10 7 20 21 23 30 3
10 21 27 40 37 19 10 35 20 35 22 0 1 -8 14 -17 29 -20 30 -30 173 -12 173 6
0 8 4 5 8 -2 4 6 9 19 10 14 1 26 -5 31 -16 14 -31 13 -156 -2 -179 -13 -20
-11 -25 10 -46 17 -17 23 -32 19 -46 -7 -28 -28 -39 -89 -46 -70 -9 -84 -14
-84 -32 0 -42 -70 -73 -84 -37 -3 8 1 28 9 44 11 21 12 36 5 54 -5 14 -10 77
-11 139 -1 88 2 125 16 161 l18 46 22 -24 c18 -20 23 -40 28 -108z m-583 87
c0 -8 12 -17 28 -21 47 -10 54 -14 59 -32 4 -19 28 -22 50 -9 8 5 15 -2 19
-20 3 -15 10 -40 16 -55 12 -33 -3 -52 -44 -54 -24 -1 -29 5 -43 50 -14 43
-23 54 -55 69 -26 12 -42 28 -49 49 -14 39 -14 38 4 38 8 0 15 -7 15 -15z
m1134 -17 c15 -24 -11 -74 -47 -91 -52 -23 -107 -29 -114 -11 -11 30 24 83 67
100 22 9 40 20 40 25 0 13 43 -6 54 -23z m-756 -42 c-4 -28 -38 -30 -38 -2 0
15 6 22 20 22 15 0 20 -6 18 -20z m497 -65 c70 -25 65 -71 -10 -90 -26 -7 -50
-9 -53 -6 -3 2 0 16 6 30 10 21 9 32 -2 54 -13 23 -14 36 -6 71 0 3 8 -7 17
-21 9 -14 30 -31 48 -38z m-548 17 c-3 -7 -5 -2 -5 12 0 14 2 19 5 13 2 -7 2
-19 0 -25z m-1602 -47 c29 -7 29 -7 -13 -14 -44 -8 -62 -3 -62 14 0 10 29 10
75 0z m222 -7 c-3 -3 -12 -4 -19 -1 -8 3 -5 6 6 6 11 1 17 -2 13 -5z m846 -29
c15 -19 34 -35 42 -35 8 0 20 -10 26 -22 10 -18 8 -24 -11 -40 -23 -18 -23
-18 -65 26 -26 26 -44 56 -47 75 -6 43 19 41 55 -4z m584 -2 c-3 -10 -5 -4 -5
12 0 17 2 24 5 18 2 -7 2 -21 0 -30z m-967 -17 c0 -2 -7 -6 -15 -10 -8 -3 -15
-1 -15 4 0 6 7 10 15 10 8 0 15 -2 15 -4z m1006 -46 c20 0 25 -16 15 -43 -6
-16 -16 -23 -32 -22 -26 2 -40 37 -31 81 l5 28 15 -22 c8 -12 20 -22 28 -22z
m-147 -87 c0 -42 -2 -45 -11 -25 -6 12 -15 22 -20 22 -20 0 8 47 30 50 1 0 2
-21 1 -47z m-143 -19 c4 -14 1 -31 -7 -40 -12 -14 -14 -14 -24 0 -16 21 -7 76
11 69 8 -3 17 -16 20 -29z m40 -81 c-7 -7 -26 7 -26 19 0 6 6 6 15 -2 9 -7 13
-15 11 -17z m-926 -1087 c10 -44 11 -61 0 -85 -15 -37 -25 -39 -34 -8 -13 49
-3 163 13 152 4 -2 14 -29 21 -59z m270 -76 c0 -11 -4 -20 -10 -20 -5 0 -10 2
-10 4 0 2 -3 11 -6 20 -4 11 -1 16 10 16 9 0 16 -8 16 -20z m520 -29 c17 -5
26 -16 31 -39 8 -37 -2 -40 -38 -12 -14 11 -40 22 -59 26 -19 3 -34 10 -34 14
0 17 57 23 100 11z m-460 -20 c5 -11 19 -22 29 -26 37 -11 86 -125 62 -140 -6
-3 -14 1 -17 9 -3 8 -14 18 -24 21 -16 5 -36 31 -76 98 -7 10 -17 24 -23 30
-18 18 -13 27 14 27 14 0 29 -8 35 -19z m1134 -11 c30 -17 56 -39 59 -49 3
-11 18 -22 36 -26 21 -4 37 -17 46 -36 9 -17 24 -29 35 -29 16 0 20 -7 20 -31
l0 -31 -47 7 c-60 9 -63 11 -63 39 0 13 -6 29 -14 35 -7 6 -16 25 -20 41 l-6
30 -202 -1 c-250 -2 -299 10 -142 34 60 9 132 23 159 31 70 21 79 20 139 -14z
m-1360 -195 c3 -9 0 -15 -9 -15 -8 0 -15 7 -15 15 0 8 4 15 9 15 5 0 11 -7 15
-15z m-109 -165 c3 -5 -1 -10 -9 -10 -9 0 -16 5 -16 10 0 6 4 10 9 10 6 0 13
-4 16 -10z m722 -102 c15 -6 37 -19 48 -29 11 -9 37 -22 59 -29 21 -7 47 -21
57 -31 11 -11 31 -19 47 -19 48 0 72 -11 72 -32 0 -11 -9 -22 -20 -25 -11 -3
-20 -9 -20 -14 0 -13 27 -11 50 3 25 16 36 4 22 -25 -6 -12 -13 -44 -14 -72
-3 -46 -5 -50 -30 -53 -19 -2 -29 -11 -37 -33 -5 -16 -17 -29 -25 -29 -13 0
-16 -12 -16 -55 l0 -55 -35 0 c-29 0 -35 -4 -35 -21 0 -12 -8 -23 -19 -26 -14
-3 -21 -15 -23 -37 -2 -25 -8 -32 -29 -34 -17 -2 -29 -11 -32 -23 -3 -11 -15
-23 -26 -26 -12 -3 -21 -15 -23 -32 -2 -20 -9 -27 -30 -29 -19 -2 -28 -9 -28
-21 0 -10 -12 -20 -32 -26 -22 -7 -34 -17 -36 -31 -4 -27 -27 -34 -110 -34
l-63 0 15 29 c15 28 40 41 82 41 12 0 25 10 32 25 6 14 18 25 26 25 8 0 21 9
28 19 7 10 32 29 55 41 25 13 47 34 57 54 14 31 14 37 -2 75 -9 22 -22 41 -28
41 -20 0 -49 39 -37 51 13 13 53 -5 53 -24 0 -22 72 -45 123 -40 l47 6 0 42
c0 49 -8 75 -22 75 -15 0 -159 146 -151 153 15 16 44 6 53 -18 5 -14 16 -25
23 -25 7 0 23 -11 34 -24 32 -37 84 -50 126 -32 30 12 36 20 42 57 6 37 4 45
-15 61 -12 10 -28 18 -36 18 -7 0 -27 12 -43 28 -56 52 -83 72 -96 72 -8 0
-20 8 -27 19 -7 10 -31 27 -53 39 l-40 20 25 11 c14 5 26 10 27 10 1 1 15 -4
30 -11z m-115 -420 c-10 -10 -16 -8 -30 5 -15 16 -15 19 -2 27 21 13 49 -15
32 -32z"/>
<path d="M4348 5193 c7 -3 16 -2 19 1 4 3 -2 6 -13 5 -11 0 -14 -3 -6 -6z"/>
<path d="M3688 5055 c2 -19 6 -35 8 -35 2 0 4 16 4 35 0 19 -4 35 -8 35 -4 0
-6 -16 -4 -35z"/>
<path d="M4200 5045 c0 -14 2 -25 4 -25 2 0 6 11 8 25 3 14 1 25 -3 25 -5 0
-9 -11 -9 -25z"/>
<path d="M5110 4973 c0 -5 18 -8 40 -8 22 -1 40 3 40 7 0 4 -18 8 -40 8 -22 0
-40 -3 -40 -7z"/>
<path d="M4092 4850 c0 -14 2 -19 5 -12 2 6 2 18 0 25 -3 6 -5 1 -5 -13z"/>
<path d="M4030 4780 c0 -11 2 -20 4 -20 2 0 6 9 9 20 3 11 1 20 -4 20 -5 0 -9
-9 -9 -20z"/>
<path d="M3372 4708 c-2 -40 1 -48 16 -48 11 0 13 3 5 8 -6 4 -13 25 -16 47
-4 40 -4 40 -5 -7z"/>
<path d="M4680 4729 c0 -13 5 -31 10 -39 7 -11 8 -5 4 20 -8 43 -14 51 -14 19z"/>
<path d="M3962 4614 c4 -21 22 -23 26 -1 2 10 -3 17 -13 17 -10 0 -15 -6 -13
-16z"/>
<path d="M3370 4563 c0 -27 3 -34 9 -23 6 8 7 18 4 22 -2 5 1 15 7 23 10 12 9
15 -4 15 -12 0 -16 -10 -16 -37z"/>
<path d="M5941 4457 c2 -18 0 -38 -4 -45 -6 -8 -3 -10 7 -6 11 4 13 14 10 33
-5 25 -3 29 26 35 19 3 38 1 46 -5 11 -9 14 -8 14 5 0 13 -11 16 -51 16 l-51
0 3 -33z"/>
<path d="M6156 4415 c4 -8 8 -15 10 -15 2 0 4 7 4 15 0 8 -4 15 -10 15 -5 0
-7 -7 -4 -15z"/>
<path d="M3370 4400 c0 -15 -7 -20 -25 -20 -21 0 -25 -5 -24 -27 1 -17 3 -21
6 -11 2 10 14 20 26 23 26 7 54 55 31 55 -8 0 -14 -9 -14 -20z"/>
<path d="M6133 4405 c0 -8 4 -12 9 -9 5 3 6 10 3 15 -9 13 -12 11 -12 -6z"/>
<path d="M2810 4312 c-26 -9 -30 -25 -30 -144 0 -106 2 -120 20 -138 12 -12
25 -32 30 -45 7 -18 17 -25 36 -25 l27 0 -6 73 c-4 40 -13 89 -21 109 -8 19
-18 65 -22 102 -7 70 -10 76 -34 68z"/>
<path d="M3321 4263 c-1 -41 0 -43 28 -43 40 0 48 16 12 23 -23 5 -31 13 -34
34 -3 20 -4 16 -6 -14z"/>
<path d="M3093 3993 c9 -2 23 -2 30 0 6 3 -1 5 -18 5 -16 0 -22 -2 -12 -5z"/>
<path d="M2933 3953 c-21 -3 -34 -11 -38 -24 -4 -11 -18 -24 -32 -30 -19 -7
-23 -14 -18 -32 4 -12 13 -27 21 -33 8 -6 14 -16 14 -22 0 -6 14 -22 32 -36
30 -23 32 -29 30 -77 -3 -73 4 -89 37 -89 25 0 29 4 34 39 8 61 40 96 103 111
29 7 51 17 48 22 -3 5 -54 8 -112 6 l-107 -3 -3 59 c-3 67 0 71 65 81 28 4 43
11 43 21 0 14 -39 17 -117 7z"/>
<path d="M3248 3823 c7 -3 16 -2 19 1 4 3 -2 6 -13 5 -11 0 -14 -3 -6 -6z"/>
<path d="M5784 3762 c-6 -4 -16 -17 -23 -29 -9 -17 -21 -23 -45 -23 -33 0 -34
-1 -38 -48 -3 -27 -12 -63 -21 -80 -10 -18 -24 -44 -31 -59 -8 -16 -18 -47
-22 -70 -5 -36 -4 -43 10 -43 8 0 25 18 36 40 11 22 24 40 28 40 4 0 15 20 25
45 11 25 23 45 28 45 5 0 12 14 17 32 4 17 17 36 27 42 11 6 26 19 33 29 7 9
25 17 40 17 56 0 72 10 71 44 l-1 31 -8 -30 c-6 -23 -8 -25 -9 -9 0 12 -8 25
-17 28 -22 8 -87 7 -100 -2z"/>
<path d="M3416 3710 c6 -6 21 -6 39 -1 30 9 30 9 -9 10 -26 1 -37 -2 -30 -9z"/>
<path d="M5956 3691 c7 -8 -17 -41 -31 -41 -8 0 -17 -11 -20 -25 -3 -14 -7
-35 -10 -48 -2 -12 -15 -33 -27 -47 -13 -13 -31 -42 -41 -65 -10 -22 -24 -46
-31 -55 -17 -19 -26 -80 -12 -80 6 1 20 14 31 30 11 16 52 67 91 113 40 46 73
92 76 103 3 16 12 19 68 19 l64 0 9 -44 c10 -51 -2 -83 -39 -100 -13 -6 -24
-16 -24 -23 0 -7 -16 -31 -35 -53 -20 -23 -31 -43 -26 -48 13 -13 31 1 31 24
0 13 7 19 21 19 22 0 91 62 102 92 4 11 23 19 62 23 31 4 57 6 59 4 2 -2 7
-28 11 -56 6 -50 5 -54 -24 -84 -35 -34 -61 -70 -61 -81 0 -5 11 -8 25 -8 18
0 28 7 35 25 5 14 16 25 24 25 8 0 24 11 37 25 27 28 44 31 56 11 4 -7 17 -18
28 -24 11 -5 26 -30 34 -56 8 -27 19 -46 28 -46 8 0 20 -15 28 -34 8 -18 23
-36 35 -39 13 -3 20 -13 20 -30 0 -45 12 -87 26 -87 37 0 59 94 29 124 -13 13
-13 15 3 19 9 3 3 5 -15 6 -28 1 -32 5 -38 39 -4 25 -13 41 -28 47 -13 6 -23
21 -25 38 -3 21 -9 27 -30 28 -24 1 -23 3 8 9 l35 7 -38 2 c-23 1 -36 6 -35
13 2 7 -3 13 -9 14 -7 1 -17 2 -22 3 -5 0 -12 13 -16 29 -4 18 -23 39 -55 61
-28 18 -50 37 -50 42 0 15 -32 39 -54 39 -12 0 -28 9 -36 19 -7 11 -17 18 -21
15 -4 -2 -20 14 -36 36 -15 22 -33 40 -40 40 -6 0 -13 8 -15 18 -3 14 -14 17
-70 17 -36 0 -65 -2 -62 -4z"/>
<path d="M3321 3678 c-19 -5 -46 -18 -60 -29 -13 -11 -44 -24 -67 -30 -24 -6
-49 -17 -55 -25 -6 -8 -26 -14 -43 -14 -45 0 -60 -13 -52 -43 4 -19 14 -27 33
-29 29 -3 39 -23 24 -47 -7 -11 -13 -10 -36 5 -24 16 -53 18 -253 18 -202 1
-226 -1 -236 -16 -20 -32 7 -40 157 -47 92 -5 151 -12 161 -20 9 -8 42 -12 83
-11 37 0 104 -4 148 -9 44 -5 116 -10 160 -10 l80 -1 55 49 c30 27 73 66 95
86 22 20 47 40 55 45 13 9 13 11 0 20 -19 12 -44 4 -93 -31 -22 -16 -45 -29
-52 -29 -7 0 -24 -11 -38 -24 -14 -13 -40 -27 -56 -31 -17 -4 -35 -14 -40 -22
-6 -12 -21 -16 -50 -15 -67 3 -78 13 -72 66 5 41 10 48 46 67 89 48 104 56
130 77 14 12 35 24 45 27 25 8 14 35 -14 34 -11 0 -36 -5 -55 -11z"/>
<path d="M3580 3600 c0 -12 8 -12 35 0 18 8 17 9 -7 9 -16 1 -28 -3 -28 -9z"/>
<path d="M2504 3406 c-3 -7 -4 -33 -2 -57 2 -34 8 -46 25 -54 14 -6 25 -24 32
-51 7 -27 18 -45 30 -49 11 -3 22 -19 26 -35 5 -21 14 -30 36 -35 16 -4 29
-13 29 -20 0 -8 9 -19 20 -25 11 -6 20 -20 20 -31 0 -12 10 -23 27 -30 15 -5
33 -19 40 -29 26 -37 44 -25 42 29 -3 53 16 111 36 111 15 0 45 32 45 48 0 23
-50 13 -61 -12 -14 -29 -48 -46 -94 -46 -28 0 -39 6 -60 37 -14 21 -25 46 -25
56 0 9 -11 22 -24 27 -13 4 -26 20 -30 34 -3 13 -15 27 -25 31 -15 4 -21 19
-26 60 -7 50 -10 55 -31 55 -14 0 -27 -6 -30 -14z"/>
<path d="M3772 3385 c-16 -13 -42 -29 -57 -35 -33 -13 -24 -27 20 -32 23 -2
32 2 39 18 5 11 19 25 30 30 25 11 34 44 13 44 -9 0 -29 -11 -45 -25z"/>
<path d="M5570 3363 l1 -38 14 34 c18 41 18 41 0 41 -11 0 -15 -11 -15 -37z"/>
<path d="M6166 3235 c-3 -9 0 -15 9 -15 8 0 15 7 15 15 0 8 -4 15 -9 15 -5 0
-11 -7 -15 -15z"/>
<path d="M2917 3234 c-14 -14 -7 -35 11 -32 9 2 17 10 17 17 0 16 -18 25 -28
15z"/>
<path d="M5332 3128 c-7 -7 -12 -17 -12 -23 0 -5 -10 -15 -22 -20 -28 -13 -34
-33 -12 -42 11 -4 23 1 33 13 9 10 36 29 60 41 40 20 42 22 23 32 -27 14 -55
14 -70 -1z"/>
<path d="M3070 3105 c-5 -14 -15 -25 -21 -25 -14 0 -99 -86 -99 -99 0 -5 -26
-13 -57 -18 -50 -7 -58 -11 -55 -28 5 -27 5 -27 57 -32 25 -3 45 -9 45 -14 0
-5 12 -22 28 -38 15 -16 33 -37 40 -45 14 -17 93 -21 163 -10 35 6 37 8 43 55
4 30 16 60 31 78 14 16 32 45 40 65 9 20 19 36 24 36 5 0 16 20 24 45 18 53 4
72 -25 34 -30 -37 -79 -96 -130 -157 -27 -30 -48 -63 -48 -72 0 -10 -7 -21
-16 -24 -23 -9 -102 -7 -108 2 -3 5 -8 30 -11 58 -7 52 -3 60 98 166 32 34 34
48 7 48 -13 0 -24 -10 -30 -25z"/>
<path d="M3530 3108 c-1 -25 -21 -58 -38 -58 -5 0 -17 -17 -26 -37 -9 -21 -37
-67 -61 -103 -25 -36 -45 -72 -45 -80 0 -23 -20 -40 -47 -40 -13 0 -26 -6 -29
-14 -3 -8 -19 -19 -35 -25 -54 -19 -23 -80 34 -66 13 4 35 19 50 35 23 24 31
27 61 20 l34 -7 7 55 c4 31 20 80 35 109 16 30 32 74 36 98 3 26 12 45 19 45
23 0 36 72 15 85 -6 3 -10 -4 -10 -17z"/>
<path d="M5765 3090 c-32 -16 -168 -129 -195 -160 -8 -10 -25 -21 -37 -25 -21
-6 -33 -35 -15 -35 21 0 82 22 82 30 0 5 21 18 47 30 26 11 50 24 53 28 11 15
60 42 77 42 10 0 24 10 31 21 12 19 21 21 69 17 62 -5 74 -17 71 -67 -2 -26
-10 -39 -33 -52 -16 -10 -40 -18 -52 -18 -13 -1 -23 -7 -23 -14 0 -7 -16 -21
-35 -30 -19 -9 -35 -21 -35 -26 0 -5 -20 -17 -45 -28 -25 -10 -45 -24 -45 -30
0 -21 48 -15 101 12 27 13 68 29 92 36 23 6 52 20 64 31 14 13 43 23 82 27 33
4 63 10 67 13 12 13 -29 58 -52 58 -20 0 -24 5 -24 30 0 30 0 30 58 30 45 0
60 -4 69 -19 17 -27 67 -34 237 -32 117 0 153 4 164 15 29 28 7 41 -94 55 -55
7 -104 17 -111 23 -7 5 -106 14 -220 19 -191 8 -284 17 -308 30 -6 3 -24 -2
-40 -11z"/>
<path d="M6101 2824 c-2 -49 -6 -60 -36 -90 -19 -19 -39 -34 -44 -34 -31 0
-110 -23 -105 -31 3 -5 30 -9 60 -9 42 0 58 5 71 20 13 15 30 20 64 20 54 0
59 -8 59 -102 0 -62 1 -61 -75 -74 -100 -17 -65 -41 43 -29 59 6 69 11 104 47
21 22 38 48 38 58 0 29 -11 50 -26 50 -7 0 -21 11 -30 25 -9 13 -25 27 -35 30
-17 6 -19 15 -17 74 1 36 -1 72 -5 78 -4 6 -1 14 5 16 7 3 -5 6 -28 6 l-41 1
-2 -56z"/>
<path d="M5460 2840 c0 -5 7 -10 16 -10 8 0 12 5 9 10 -3 6 -10 10 -16 10 -5
0 -9 -4 -9 -10z"/>
<path d="M3445 2715 c-16 -8 -26 -14 -21 -15 6 0 1 -7 -10 -15 -18 -14 -18
-14 9 -15 20 0 27 5 27 20 0 17 7 20 44 20 25 0 48 5 51 10 9 15 -65 11 -100
-5z"/>
<path d="M3295 2630 c-3 -5 -3 -10 2 -11 4 0 16 -2 25 -4 11 -2 15 2 11 11 -6
16 -29 19 -38 4z"/>
<path d="M3210 2569 c-32 -18 -33 -19 -10 -19 39 0 71 11 67 23 -6 18 -20 17
-57 -4z"/>
<path d="M3135 2520 c-3 -5 1 -10 9 -10 9 0 16 5 16 10 0 6 -4 10 -9 10 -6 0
-13 -4 -16 -10z"/>
<path d="M3064 2486 c-3 -8 -12 -12 -19 -10 -17 7 -31 -16 -15 -26 22 -14 50
1 50 26 0 27 -8 31 -16 10z"/>
<path d="M6227 2488 c-7 -22 5 -122 19 -143 6 -11 15 -54 18 -95 10 -115 15
-123 52 -96 17 13 19 29 22 135 4 115 3 121 -20 144 -13 14 -28 33 -34 43 -13
23 -50 30 -57 12z"/>
<path d="M2958 2393 c6 -2 18 -2 25 0 6 3 1 5 -13 5 -14 0 -19 -2 -12 -5z"/>
<path d="M2854 2359 c-3 -6 0 -15 7 -20 22 -14 28 -11 22 11 -6 22 -18 26 -29
9z"/>
<path d="M2783 2143 c9 -2 25 -2 35 0 9 3 1 5 -18 5 -19 0 -27 -2 -17 -5z"/>
<path d="M5711 2049 c-18 -17 -30 -33 -27 -36 2 -3 28 -2 55 2 48 6 51 9 51
36 0 24 -4 29 -24 29 -12 0 -38 -14 -55 -31z"/>
<path d="M2990 2051 c0 -11 4 -22 9 -25 4 -3 6 6 3 19 -5 30 -12 33 -12 6z"/>
<path d="M3405 2040 c-3 -6 1 -7 9 -4 18 7 21 14 7 14 -6 0 -13 -4 -16 -10z"/>
<path d="M3650 2001 c0 -23 5 -41 10 -41 6 0 10 5 10 10 0 6 6 10 14 10 13 0
33 37 24 45 -1 2 -15 6 -31 10 -26 7 -27 6 -27 -34z"/>
<path d="M3420 2011 c0 -25 6 -27 13 -6 4 8 2 17 -3 20 -6 4 -10 -3 -10 -14z"/>
<path d="M3623 1917 l-20 -34 23 5 c25 5 42 38 26 54 -6 6 -16 -3 -29 -25z"/>
<path d="M3574 1856 c-8 -22 3 -33 18 -18 9 9 9 15 0 24 -9 9 -13 7 -18 -6z"/>
<path d="M3480 1756 c0 -51 8 -68 26 -53 38 31 44 40 44 63 0 21 -5 24 -35 24
-33 0 -35 -2 -35 -34z"/>
<path d="M5678 1648 c-3 -46 -6 -53 -28 -58 -22 -5 -26 -13 -30 -55 -4 -42 -8
-50 -30 -55 -19 -4 -26 -13 -28 -38 -3 -31 -2 -32 32 -32 32 0 36 3 36 25 0
20 5 25 25 25 24 0 25 3 25 55 0 54 0 55 30 55 l30 0 0 65 0 65 -29 0 c-29 0
-30 -2 -33 -52z"/>
<path d="M3480 1647 c0 -11 -8 -17 -25 -17 -23 0 -25 -3 -23 -42 l1 -43 4 38
c3 29 9 37 24 37 20 0 37 25 25 37 -3 4 -6 -1 -6 -10z"/>
<path d="M4140 1615 c0 -10 -11 -15 -35 -15 -35 0 -43 -12 -26 -39 11 -17 34
-4 27 15 -6 16 19 19 29 4 3 -5 19 -10 36 -10 26 0 29 3 29 30 0 27 -3 30 -30
30 -20 0 -30 -5 -30 -15z"/>
<path d="M3504 1466 c-3 -8 -4 -25 -1 -38 3 -18 5 -16 6 9 0 17 7 34 14 36 9
4 9 6 -1 6 -7 1 -15 -5 -18 -13z"/>
<path d="M3700 1435 c0 -16 6 -25 15 -25 9 0 15 9 15 25 0 16 -6 25 -15 25 -9
0 -15 -9 -15 -25z"/>
</g>
</svg>
